<?xml version="1.0" encoding="utf-8"?>
<!-- Generator: Adobe Illustrator 22.1.0, SVG Export Plug-In . SVG Version: 6.00 Build 0)  -->
<svg version="1.1" id="Layer_1" xmlns="http://www.w3.org/2000/svg" xmlns:xlink="http://www.w3.org/1999/xlink" x="0px" y="0px"
	 viewBox="0 0 274 86" style="enable-background:new 0 0 274 86;" xml:space="preserve">
<style type="text/css">
	.st0{fill:#3F51B5;}
</style>
<g>
	<path class="st0" d="M31.4,37c0,1.8-1.4,3.2-3.2,3.2c-1.7,0-3.2-1.4-3.2-3.2c0-1.8,1.4-3.2,3.2-3.2C30,33.8,31.4,35.2,31.4,37z"/>
	<path class="st0" d="M31.4,49.4c0,1.8-1.4,3.2-3.2,3.2c-1.7,0-3.2-1.4-3.2-3.2c0-1.8,1.4-3.2,3.2-3.2C30,46.3,31.4,47.7,31.4,49.4z
		"/>
	<path class="st0" d="M34.5,46.4c-1.7,0-3.2-1.4-3.2-3.2c0-1.7,1.4-3.2,3.2-3.2c1.7,0,3.2,1.4,3.2,3.2
		C37.6,44.9,36.2,46.4,34.5,46.4z"/>
	<path class="st0" d="M22.1,46.4c-1.7,0-3.2-1.4-3.2-3.2c0-1.7,1.4-3.2,3.2-3.2c1.7,0,3.2,1.4,3.2,3.2
		C25.2,44.9,23.8,46.4,22.1,46.4z"/>
	<path class="st0" d="M71.7,37.8L51.5,26.1L50,25.2c-5.1-3-13.5-7.8-18.6-10.8l-4.9-2.8L9.8,1.9c-5.1-3-9.3-0.5-9.3,5.4V22h26.9
		c0,0,0.1,0,0.1,0c11.6,0,21,9.4,21,21.1c0,11.6-9.4,21.1-21,21.1c-9.9,0-18.2-6.9-20.4-16.1H0.5V79c0,5.9,4.2,8.4,9.3,5.4
		l21.6-12.5c1.7-1,3.7-2.2,5.9-3.4c4.4-2.5,9.3-5.4,12.7-7.3l7.1-4.1l14.5-8.4C76.8,45.6,76.8,40.7,71.7,37.8z"/>
</g>
<g>
	<path class="st0" d="M128.9,63.7h-5.8c-0.6,0-1.2-0.2-1.6-0.5c-0.4-0.3-0.7-0.7-0.9-1.2l-3-8.2h-16.6l-3,8.2
		c-0.1,0.4-0.4,0.8-0.9,1.2c-0.4,0.4-1,0.5-1.6,0.5h-5.8l15.8-40.1h7.6L128.9,63.7z M115.8,48.6l-4.9-13.3c-0.2-0.6-0.5-1.3-0.7-2.1
		c-0.3-0.8-0.5-1.7-0.8-2.6c-0.2,0.9-0.5,1.8-0.7,2.6c-0.3,0.8-0.5,1.5-0.7,2.1L103,48.6H115.8z"/>
	<path class="st0" d="M140.6,29.6v11.9h15v6h-15v16.3h-7.5V23.7h25.3v5.9H140.6z"/>
	<path class="st0" d="M171.9,40.5h1.7c0.7,0,1.3-0.1,1.7-0.3c0.5-0.2,0.9-0.5,1.2-0.9l11.1-14c0.5-0.6,0.9-1,1.5-1.2
		c0.5-0.2,1.1-0.3,1.9-0.3h6.4l-13.5,16.7c-0.8,1-1.6,1.7-2.5,2.2c0.6,0.2,1.2,0.5,1.6,0.9c0.5,0.4,1,0.9,1.4,1.6l13.9,18.8h-6.6
		c-0.9,0-1.5-0.1-2-0.4c-0.4-0.3-0.8-0.6-1.1-1.1l-11.3-14.8c-0.4-0.5-0.8-0.9-1.2-1.1c-0.5-0.2-1.1-0.3-2-0.3h-2.4v17.6h-7.5V23.7
		h7.5V40.5z"/>
	<path d="M230.4,29.8h-12.1v33.9h-7.5V29.8h-12.1v-6.1h31.6V29.8z"/>
	<path d="M270,23.7l-16.2,40.1h-6.7l-16.2-40.1h6c0.6,0,1.2,0.2,1.6,0.5c0.4,0.3,0.7,0.7,0.9,1.2l9.4,24.4c0.3,0.8,0.6,1.7,0.9,2.6
		c0.3,1,0.6,1.9,0.8,3c0.2-1,0.5-2,0.7-3c0.3-1,0.5-1.8,0.9-2.6l9.4-24.4c0.1-0.4,0.4-0.8,0.9-1.2c0.4-0.4,1-0.5,1.6-0.5H270z"/>
</g>
</svg>
